<?xml version="1.0" encoding="utf-8"?>
<!-- Generator: Adobe Illustrator 23.0.0, SVG Export Plug-In . SVG Version: 6.00 Build 0)  -->
<svg version="1.1" id="Layer_1" xmlns:xodm="http://www.corel.com/coreldraw/odm/2003"
	 xmlns="http://www.w3.org/2000/svg" xmlns:xlink="http://www.w3.org/1999/xlink" x="0px" y="0px" viewBox="0 0 160 160"
	 style="enable-background:new 0 0 160 160;" xml:space="preserve">
<style type="text/css">
	.st0{fill-rule:evenodd;clip-rule:evenodd;fill:#1447E6;}
	.st1{fill:#FEFEFE;}
</style>
<g id="Layer_x0020_1">
	<rect y="0" class="st0" width="160" height="160"/>
	<path class="st1" d="M61.3,137.5v-30.9h11.5c11.1,0,20-1.7,27.1-4.4c18.8-7.3,25.2-23.1,25.2-37.8c0-17.5-7.6-29.8-21.3-36.5
		c-7.6-3.7-17.1-5.4-28.6-5.4H35v115H61.3z M61.3,85.3V43.8h12.6c6.3,0,11,0.7,14.6,2.9c6.4,3.8,9.2,10.4,9.2,17.7
		c0,8.8-3.1,15.3-9.8,18.4c-3.5,1.7-8.1,2.5-13.6,2.5H61.3z"/>
</g>
</svg>
